<?xml version="1.0" standalone="no"?>
<!DOCTYPE svg PUBLIC "-//W3C//DTD SVG 20010904//EN"
 "http://www.w3.org/TR/2001/REC-SVG-20010904/DTD/svg10.dtd">
<svg version="1.0" xmlns="http://www.w3.org/2000/svg"
 width="640.000000pt" height="640.000000pt" viewBox="0 0 640.000000 640.000000"
 preserveAspectRatio="xMidYMid meet">
<metadata>
Created by potrace 1.11, written by Peter Selinger 2001-2013
</metadata>
<g transform="translate(0.000000,640.000000) scale(0.100000,-0.100000)"
fill="#000000" stroke="none">
<path d="M3065 6394 c17 -3 78 -14 136 -24 119 -22 153 -25 130 -11 -15 10 61
8 184 -4 44 -4 54 -3 37 4 -38 17 -200 33 -362 36 -85 2 -141 1 -125 -1z"/>
<path d="M3682 6375 c27 -13 62 -35 79 -49 17 -14 35 -26 41 -26 12 0 174 -63
233 -90 37 -18 38 -19 13 -20 -15 0 -30 5 -33 10 -3 6 -16 10 -28 10 -12 0
-94 18 -182 39 -88 21 -197 47 -243 57 l-83 17 -22 -22 -22 -22 85 2 c48 0 98
-4 115 -11 17 -7 49 -16 73 -21 24 -5 58 -15 75 -23 18 -8 41 -17 52 -19 15
-3 13 -5 -7 -6 -39 -1 -35 -21 5 -21 21 0 28 -3 19 -9 -11 -7 -10 -10 3 -15 9
-3 27 -6 40 -6 12 0 25 -6 28 -13 4 -10 -8 -12 -47 -10 -28 2 -112 5 -186 8
-106 3 -121 2 -72 -5 34 -5 73 -12 85 -17 28 -10 -26 -17 -258 -37 -93 -8
-208 -22 -255 -30 -155 -28 -205 -38 -260 -52 -190 -47 -361 -87 -400 -94
-187 -34 -209 -36 -225 -28 -10 6 -21 6 -28 0 -7 -5 -37 -14 -67 -20 -30 -6
-73 -15 -95 -21 -143 -36 -174 -43 -210 -47 -22 -2 -49 -6 -59 -9 -10 -2 -15
0 -10 4 5 5 70 23 144 40 146 35 148 35 295 82 96 31 343 116 415 145 19 7 28
13 19 14 -20 0 -147 -37 -170 -49 -9 -5 -38 -12 -65 -16 l-49 -7 34 22 c19 12
45 26 58 31 13 5 23 13 23 19 0 5 8 10 18 10 10 0 27 7 38 15 21 16 13 20 -14
6 -9 -5 -73 -36 -142 -70 -69 -35 -159 -80 -200 -102 -65 -34 -96 -42 -230
-64 -85 -14 -168 -31 -185 -37 -46 -16 -220 -37 -315 -37 -47 0 -130 6 -185
14 -127 18 -166 18 -110 0 117 -38 445 -60 675 -46 69 4 131 5 138 1 13 -6
-16 -27 -301 -222 -122 -83 -385 -228 -414 -228 -6 0 -21 -10 -34 -21 -25 -23
-180 -99 -202 -99 -17 -1 -101 -39 -96 -45 17 -17 339 106 411 157 32 22 98
36 98 20 0 -11 -57 -62 -69 -62 -4 0 -16 -8 -27 -18 -25 -23 -246 -180 -293
-209 -268 -161 -402 -218 -641 -277 l-65 -15 75 5 c219 15 528 119 907 305 80
39 147 68 150 66 3 -3 -38 -50 -90 -104 -53 -54 -106 -111 -119 -128 -12 -16
-26 -31 -30 -33 -5 -2 -8 -9 -8 -15 0 -6 55 43 122 109 180 177 188 184 199
184 17 0 -58 -87 -212 -245 -182 -187 -229 -237 -229 -250 0 -7 3 -7 8 0 18
24 82 78 82 69 0 -12 -67 -78 -164 -161 -44 -37 -120 -106 -170 -153 -50 -47
-113 -104 -141 -125 -27 -22 -52 -42 -55 -45 -3 -3 -41 -29 -85 -57 -44 -29
-94 -66 -110 -81 -17 -16 -64 -47 -103 -68 -83 -44 -73 -58 15 -21 32 14 94
39 138 58 44 18 97 43 117 56 21 13 42 23 47 23 5 0 11 4 13 9 2 4 35 28 73
52 76 47 108 70 242 167 47 34 88 61 90 58 3 -2 -10 -27 -29 -54 -18 -27 -51
-79 -73 -116 -22 -36 -43 -66 -47 -66 -5 0 -8 -7 -8 -15 0 -8 -4 -15 -10 -15
-5 0 -10 -4 -10 -10 0 -10 -26 -44 -62 -82 -10 -10 -18 -24 -18 -32 0 -8 -5
-18 -12 -22 -7 -4 -8 -3 -4 4 4 7 4 12 1 12 -3 0 -13 -16 -21 -35 -8 -19 -19
-35 -24 -35 -5 0 -21 -17 -34 -37 -13 -21 -45 -60 -71 -88 -48 -52 -46 -72 4
-36 40 29 223 222 289 306 31 38 61 73 66 77 15 10 34 10 21 0 -16 -11 -60
-102 -85 -173 -23 -68 -98 -178 -181 -266 -53 -56 -74 -88 -43 -63 24 20 165
141 182 157 8 7 23 18 35 24 18 9 16 6 -7 -19 -16 -18 -30 -40 -31 -50 -2 -27
-28 -59 -61 -77 -33 -17 -57 -20 -34 -4 13 9 13 10 0 6 -9 -2 -14 -14 -12 -27
1 -16 -2 -21 -13 -16 -9 3 -15 0 -15 -9 0 -8 -7 -15 -15 -15 -8 0 -29 -13 -47
-28 -18 -16 -51 -39 -73 -52 -22 -13 -42 -27 -45 -30 -17 -21 -167 -109 -178
-105 -7 2 -10 0 -7 -5 3 -6 0 -10 -8 -10 -8 0 -20 -7 -27 -15 -7 -8 -16 -13
-20 -10 -4 3 -11 -2 -14 -10 -3 -8 -9 -14 -13 -13 -4 2 -28 -7 -53 -19 -25
-12 -81 -38 -125 -58 -104 -48 -207 -106 -201 -113 10 -9 127 39 281 114 83
41 153 74 157 74 8 0 305 180 350 211 14 11 31 19 36 19 13 0 -21 -81 -57
-134 -14 -21 -30 -46 -36 -55 -20 -33 -61 -88 -110 -148 -27 -34 -69 -86 -92
-115 -95 -119 -239 -254 -329 -311 -22 -14 -48 -32 -56 -41 -9 -8 -33 -27 -54
-42 -22 -15 -30 -23 -19 -19 11 5 32 9 46 9 19 1 25 5 21 15 -4 10 -1 13 12 8
10 -4 15 -3 11 3 -3 6 0 10 7 10 7 0 19 9 26 21 8 12 19 18 28 15 8 -3 14 -1
14 4 0 6 5 10 11 10 15 0 189 131 262 197 32 29 61 53 65 53 4 0 30 28 57 61
28 34 82 98 121 142 39 45 99 120 134 167 78 103 121 152 129 144 3 -3 1 -8
-4 -12 -6 -4 -41 -54 -79 -112 -38 -58 -91 -133 -118 -167 -26 -34 -48 -64
-48 -66 0 -1 -27 -31 -60 -66 -33 -35 -60 -67 -60 -72 0 -12 81 72 136 141
101 127 117 148 164 215 48 67 68 69 34 2 -27 -52 -238 -368 -278 -415 -20
-24 -36 -47 -36 -50 0 -4 -29 -38 -64 -76 -36 -38 -64 -77 -63 -87 1 -17 3
-18 27 -2 14 9 32 22 40 29 8 7 30 26 47 41 155 133 313 299 354 373 8 14 16
27 19 30 14 13 73 115 120 208 86 170 75 105 -22 -123 -77 -182 -163 -347
-195 -376 -37 -33 -168 -129 -177 -129 -4 0 -22 -11 -40 -25 -18 -14 -40 -25
-49 -25 -9 0 -19 -4 -22 -10 -12 -19 30 -10 75 16 107 62 112 65 108 52 -19
-56 -481 -371 -711 -483 -78 -38 -104 -63 -44 -43 17 6 37 14 42 18 6 4 53 29
105 56 52 26 123 65 158 86 34 21 68 38 75 38 6 0 23 9 37 20 14 11 30 20 37
20 14 0 80 35 143 75 117 75 134 85 142 85 19 0 -60 -96 -153 -187 -69 -67
-99 -104 -103 -126 -5 -25 -9 -29 -16 -17 -8 13 -14 8 -12 -11 1 -4 -37 -47
-84 -98 -91 -96 -234 -266 -262 -310 -9 -14 -38 -54 -64 -89 -26 -35 -51 -74
-54 -88 -3 -13 -10 -24 -15 -24 -5 0 -9 -6 -9 -14 0 -8 -3 -16 -7 -18 -9 -3
-53 -82 -53 -93 0 -5 9 2 20 15 11 13 20 28 20 34 0 6 11 24 25 40 14 16 25
32 25 36 0 4 16 25 35 46 19 22 35 42 35 46 0 4 9 9 19 13 11 3 23 15 26 26
10 31 186 203 222 218 18 7 31 17 28 21 -4 7 57 71 130 135 61 54 216 168 221
162 6 -5 -54 -63 -103 -100 -16 -12 -68 -55 -115 -94 -48 -40 -91 -73 -96 -73
-6 0 -12 -7 -15 -15 -15 -38 389 243 583 405 88 73 95 78 87 58 -5 -15 -192
-253 -224 -286 -7 -7 -13 -19 -13 -25 0 -7 -14 -25 -30 -41 -17 -16 -30 -34
-30 -40 0 -6 29 19 65 57 105 109 98 86 -21 -74 -42 -57 -93 -121 -113 -143
-49 -57 -297 -304 -346 -346 -76 -66 -140 -116 -186 -147 -43 -30 -78 -63 -66
-63 5 0 122 76 142 92 6 5 42 32 80 60 81 60 214 169 264 216 32 29 51 40 51
27 0 -2 -19 -28 -43 -57 -23 -29 -54 -70 -70 -90 -55 -74 -274 -287 -382 -373
-27 -22 -57 -46 -66 -55 -10 -8 -49 -37 -88 -65 -43 -30 -71 -56 -71 -67 0
-10 2 -18 5 -18 6 0 137 68 164 85 9 6 39 23 66 39 65 39 192 145 279 235 39
39 75 71 81 71 6 0 28 33 49 72 83 155 175 300 246 388 25 31 60 75 79 98 18
23 38 42 44 42 5 0 3 -8 -6 -17 -8 -10 -54 -76 -101 -148 -47 -71 -90 -135
-96 -142 -5 -7 -10 -14 -10 -16 0 -3 -18 -31 -39 -63 -39 -59 -63 -102 -152
-269 -27 -49 -58 -107 -69 -128 -23 -42 -140 -494 -140 -540 0 -15 -4 -26 -9
-23 -5 4 -7 -3 -4 -14 3 -11 0 -20 -6 -20 -15 0 -14 -27 2 -33 9 -3 6 -18 -10
-58 -30 -72 -69 -226 -82 -324 -24 -192 -31 -287 -25 -348 7 -72 21 -82 22
-16 1 47 19 178 32 229 5 19 19 73 31 120 29 114 49 162 64 156 9 -3 15 11 20
42 4 26 15 63 24 82 29 60 103 182 107 177 5 -5 -23 -86 -35 -101 -12 -14 -41
-99 -36 -104 7 -7 25 9 25 23 0 8 11 30 24 49 13 19 36 65 52 103 16 37 38 88
50 113 22 44 22 45 32 20 5 -14 10 -60 11 -102 2 -65 -2 -84 -25 -130 -15 -29
-35 -65 -45 -80 -11 -14 -19 -34 -19 -45 -1 -10 -15 -27 -33 -38 l-32 -20 -7
-193 c-7 -206 -18 -263 -64 -331 l-24 -36 774 -3 775 -2 168 85 c172 87 281
145 320 171 36 23 43 17 43 -37 0 -31 4 -48 10 -44 6 4 10 75 10 180 0 285 40
506 112 625 104 172 238 340 304 381 35 21 37 21 107 6 133 -30 302 -91 305
-109 7 -35 -138 -79 -253 -77 -33 0 -71 -4 -85 -9 -29 -12 -90 -66 -90 -80 0
-5 -19 -10 -42 -11 -24 -1 -59 -5 -78 -10 -65 -17 163 -12 242 4 114 25 172
22 216 -9 32 -23 99 -67 209 -140 18 -11 33 -24 33 -28 0 -3 -13 -11 -30 -17
-19 -6 -30 -6 -30 0 0 5 -11 7 -25 3 -15 -4 -25 -2 -25 5 0 15 -37 14 -43 -1
-4 -10 -6 -10 -6 0 -1 8 -17 12 -45 12 -25 0 -47 4 -51 9 -3 6 -13 9 -23 9
-39 -1 -228 13 -244 18 -10 3 -26 1 -35 -5 -15 -8 -16 -10 -3 -15 33 -10 189
-45 248 -55 41 -6 83 -22 115 -42 85 -54 217 -150 217 -158 0 -10 -60 -21
-112 -21 -20 0 -58 10 -85 21 -26 12 -59 21 -73 21 -22 -1 -23 0 -5 7 19 7 18
9 -5 21 -25 14 -235 27 -275 18 -18 -4 -17 -6 8 -16 15 -7 57 -16 93 -22 67
-11 127 -39 239 -113 33 -22 62 -41 64 -43 2 -2 1 -10 -3 -19 -5 -13 -9 -13
-28 -3 -12 7 -31 23 -41 36 -10 12 -24 22 -31 22 -7 0 -30 11 -50 25 -20 13
-36 20 -36 15 0 -6 5 -10 10 -10 6 0 10 -4 10 -8 0 -14 -70 -41 -149 -57 -69
-14 -96 -26 -113 -49 -9 -14 2 -36 18 -36 8 0 37 -22 64 -50 54 -55 65 -87 64
-182 -1 -35 3 -58 9 -58 7 0 6 -5 -1 -12 -10 -10 -14 -10 -21 0 -12 19 -33
-10 -25 -33 6 -15 3 -17 -23 -13 -28 4 -32 1 -37 -26 -3 -17 -8 -41 -12 -53
l-6 -23 1319 0 1319 0 14 108 c18 141 19 268 1 310 -11 25 -11 35 -1 47 9 11
10 85 5 322 l-8 308 -29 27 c-17 16 -34 28 -39 28 -5 0 -27 11 -48 24 -54 35
-67 98 -53 269 7 82 7 138 1 159 -5 18 -9 58 -8 89 1 31 -1 61 -4 66 -4 6 -26
13 -49 17 -24 4 -59 9 -78 13 -33 6 -34 5 -20 -12 14 -17 12 -17 -40 -10 l-55
7 42 -28 c23 -16 77 -64 121 -106 l80 -77 -4 -63 c-7 -108 -26 -238 -35 -238
-5 0 -9 10 -9 22 0 15 -27 49 -81 100 -45 43 -85 78 -90 78 -12 0 -22 46 -16
70 3 11 -1 41 -9 67 -8 27 -13 59 -10 73 2 13 -3 37 -11 53 -8 16 -13 43 -11
60 l3 32 -72 0 c-44 0 -77 5 -84 12 -16 16 -39 17 -39 2 0 -6 7 -9 15 -5 23 8
33 -23 28 -82 -8 -72 -23 -76 -24 -5 -1 56 -1 57 -11 23 -19 -65 -20 -66 -30
-31 -7 26 -12 31 -19 20 -5 -8 -9 -24 -9 -36 0 -13 -4 -23 -10 -23 -9 0 -19
29 -42 130 l-12 55 -6 -45 c-6 -42 -7 -44 -17 -20 -5 14 -18 50 -27 80 -21 66
-34 85 -64 94 -26 9 -27 0 -6 -43 25 -51 9 -48 -21 4 -15 25 -25 49 -21 52 10
10 -38 30 -90 37 -54 8 -102 36 -129 75 -9 14 -35 40 -56 56 -21 17 -37 34
-35 40 1 5 20 16 42 24 21 8 41 17 44 20 3 4 28 18 55 32 189 100 233 125 261
146 17 12 34 23 38 23 4 0 14 6 21 12 8 7 22 20 31 27 12 11 14 16 5 19 -7 2
-18 -3 -24 -11 -18 -22 -111 -79 -212 -131 -95 -49 -118 -55 -109 -31 4 10
-13 6 -60 -15 -67 -31 -106 -38 -106 -20 0 15 -37 12 -71 -6 -37 -18 -45 -14
-29 17 11 20 10 21 -6 14 -54 -22 -95 -26 -173 -20 -105 8 -379 60 -418 79
-15 8 -91 45 -168 83 -77 38 -139 75 -138 81 2 7 -6 12 -18 12 -21 0 -71 30
-99 60 -8 9 -33 29 -55 45 -67 49 -118 115 -87 115 4 0 8 19 9 43 1 41 21 101
68 202 77 170 119 358 105 472 -10 78 -17 100 -85 258 -91 213 -125 332 -151
525 -23 178 -15 390 20 520 28 102 39 153 57 268 11 72 12 74 48 89 20 8 76
33 126 55 49 22 129 53 177 69 49 16 112 40 142 54 43 21 70 26 134 26 44 0
89 -4 99 -9 16 -9 193 -55 318 -82 27 -6 121 -18 208 -26 232 -21 373 -59 517
-138 47 -26 98 -50 114 -53 36 -8 156 -124 184 -179 11 -22 30 -49 42 -62 14
-15 19 -30 16 -45 -3 -12 -3 -16 0 -9 8 17 24 15 24 -4 0 -8 4 -12 10 -9 22
14 58 -27 79 -91 17 -53 21 -89 21 -199 0 -128 -19 -316 -41 -398 l-10 -38
-25 20 c-15 11 -42 23 -63 27 -20 4 -40 10 -46 14 -5 4 -29 10 -52 14 -52 8
-114 -18 -162 -68 -32 -33 -33 -34 -12 -45 l20 -11 -20 -35 c-11 -19 -18 -39
-14 -45 3 -5 -2 -26 -11 -46 -13 -28 -14 -38 -5 -44 10 -5 8 -17 -8 -48 -40
-78 -17 -122 62 -122 36 0 46 7 122 88 68 71 85 84 90 69 4 -9 2 -31 -5 -48
-17 -40 -8 -46 30 -19 l31 22 -6 -44 c-4 -23 -10 -61 -16 -83 -19 -81 -49
-318 -48 -383 l1 -67 14 75 c7 41 20 134 29 205 9 72 21 157 27 190 5 33 12
75 15 93 4 21 11 32 22 32 24 0 76 57 96 105 34 81 73 202 85 265 7 36 19 76
27 90 12 23 13 22 8 -20 -3 -25 -12 -101 -20 -170 -7 -69 -19 -143 -25 -165
-6 -22 -12 -51 -14 -65 -1 -14 -8 -35 -14 -47 -14 -25 -16 -52 -4 -37 9 9 56
149 58 169 0 6 8 44 16 85 12 54 16 115 14 215 -3 137 -7 169 -41 330 -22 106
-31 215 -17 215 17 0 80 -88 117 -165 39 -79 65 -188 65 -275 0 -98 -71 -389
-82 -334 -6 31 -46 -93 -56 -176 -14 -107 -8 -294 12 -365 9 -33 34 -103 56
-155 21 -52 46 -120 54 -152 18 -62 22 -223 7 -260 -45 -112 -79 -206 -79
-218 0 -8 -32 -82 -70 -165 -77 -166 -102 -250 -102 -346 0 -72 8 -107 51
-229 27 -78 80 -162 93 -150 3 3 -6 37 -19 75 -60 180 -68 215 -62 299 6 99
70 279 174 492 96 196 116 264 111 373 -3 60 -9 94 -21 111 l-17 24 0 -29 c-1
-25 -4 -21 -20 25 -11 30 -26 69 -34 85 -36 78 -76 295 -76 415 0 105 26 212
98 415 54 150 64 198 63 307 0 108 -18 173 -97 353 -19 46 -36 127 -27 135 4
3 31 12 58 19 65 16 185 91 230 144 19 22 40 57 45 77 30 115 34 141 33 203 0
37 -5 73 -12 80 -6 6 -11 21 -11 33 0 25 -25 50 -34 35 -4 -6 -4 -34 0 -62 5
-38 4 -50 -5 -45 -6 4 -11 14 -11 22 0 23 -55 138 -94 197 -91 138 -266 280
-413 337 -35 14 -63 28 -63 32 0 4 -17 10 -37 14 -21 4 -43 13 -51 20 -7 8
-32 19 -55 25 -23 6 -48 16 -54 21 -9 7 -18 7 -28 -2 -18 -15 -85 4 -85 25 0
10 -9 12 -34 8 -22 -3 -38 0 -47 9 -7 8 -24 12 -37 10 -17 -3 -23 -1 -18 7 5
7 -3 11 -24 11 -18 0 -29 4 -25 10 3 6 -4 10 -16 10 -24 0 -91 21 -99 31 -3 3
-12 9 -20 12 -8 4 10 4 40 1 30 -4 60 -11 67 -16 6 -5 17 -8 25 -7 14 3 122
-27 150 -42 10 -5 27 -9 38 -9 30 0 192 -56 274 -94 72 -34 96 -38 60 -11 -55
43 -472 216 -674 280 -30 10 -59 21 -65 26 -5 5 -16 9 -25 9 -9 0 -35 9 -58
20 -44 21 -62 25 -62 12 0 -14 149 -76 329 -138 8 -2 12 -7 9 -9 -11 -11 -212
33 -294 65 -12 5 -43 12 -70 15 -27 4 -55 12 -61 17 -7 6 -13 7 -13 2 0 -5 -4
-4 -8 1 -12 17 -65 42 -102 50 -32 6 -34 6 -15 -8 11 -8 30 -17 43 -21 39 -13
23 -21 -37 -19 -78 2 -173 20 -231 43 -26 10 -51 16 -56 12 -4 -4 -4 -1 0 6 5
9 -4 12 -33 12 -23 0 -41 5 -41 11 0 5 -4 8 -9 5 -14 -9 -42 5 -34 17 4 6 -2
8 -15 5 -12 -4 -25 -2 -28 3 -3 5 -14 9 -25 9 -10 0 -19 5 -19 10 0 21 32 22
108 1 42 -11 97 -26 122 -32 25 -6 53 -15 62 -20 23 -12 61 -12 54 0 -3 5 -23
12 -43 16 -21 4 -83 22 -139 40 -88 28 -114 33 -210 33 l-109 1 47 -24z m848
-201 c0 -2 -7 -4 -15 -4 -8 0 -15 4 -15 10 0 5 7 7 15 4 8 -4 15 -8 15 -10z
m30 -14 c0 -5 -5 -10 -11 -10 -5 0 -7 5 -4 10 3 6 8 10 11 10 2 0 4 -4 4 -10z
m325 -40 c3 -6 -1 -7 -9 -4 -18 7 -21 14 -7 14 6 0 13 -4 16 -10z m-210 -120
c25 -11 -1 -11 -35 0 -20 6 -21 8 -5 8 11 0 29 -3 40 -8z m-1870 -110 c-3 -5
-13 -10 -21 -10 -8 0 -14 5 -14 10 0 6 9 10 21 10 11 0 17 -4 14 -10z m-70
-10 c-3 -5 -16 -10 -29 -10 -12 0 -26 -3 -29 -6 -11 -11 -120 -54 -155 -60
-18 -3 -35 -10 -38 -15 -7 -12 -44 -12 -44 0 0 5 17 15 38 21 20 7 41 16 47
21 5 5 16 9 25 9 10 0 30 7 46 14 16 8 45 18 64 21 19 3 36 8 39 11 9 9 42 4
36 -6z m40 -26 c11 -5 -6 -17 -57 -41 -40 -19 -75 -38 -78 -42 -3 -3 -22 -15
-42 -25 -49 -25 -53 -52 -5 -30 17 8 40 17 50 21 9 3 17 9 17 14 0 5 9 9 20 9
11 0 20 5 20 11 0 6 8 8 19 4 10 -3 24 1 31 10 7 8 17 15 22 15 6 0 25 7 43
16 19 9 42 14 52 12 12 -3 2 -9 -27 -18 -25 -8 -57 -22 -72 -32 -14 -10 -31
-18 -37 -18 -6 0 -29 -11 -51 -25 -22 -14 -44 -25 -48 -25 -5 0 -20 -8 -33
-19 -13 -10 -49 -31 -79 -46 -30 -16 -68 -37 -83 -48 -17 -12 -32 -16 -38 -10
-5 5 16 22 51 41 33 19 60 38 60 43 0 5 9 9 20 9 11 0 20 7 20 15 0 19 -18 19
-39 1 -9 -7 -52 -32 -96 -56 -44 -23 -89 -51 -101 -61 -11 -11 -25 -19 -30
-19 -5 0 -25 -13 -44 -30 -19 -16 -42 -29 -50 -30 -9 0 -31 -14 -49 -31 -31
-28 -51 -34 -37 -10 7 10 164 122 246 175 25 16 84 55 133 87 48 33 91 59 95
59 5 0 36 14 70 30 34 17 71 30 82 30 11 0 20 5 20 10 0 12 3 12 25 4z m-375
-83 c0 -11 -239 -145 -246 -138 -7 7 92 70 172 112 78 40 74 38 74 26z m2975
-39 c17 -15 52 -47 79 -72 40 -37 45 -40 30 -15 -11 16 -29 40 -41 54 -21 22
-29 41 -19 41 21 0 135 -131 174 -202 11 -19 26 -46 34 -59 7 -13 20 -33 29
-44 18 -23 39 -118 39 -179 0 -42 -19 -105 -46 -157 -19 -37 -39 -38 -30 -3 4
15 9 40 12 58 4 28 3 27 -11 -9 -28 -70 -35 -65 -35 28 0 95 -12 164 -41 247
-36 99 -78 158 -223 313 -14 15 -26 30 -26 33 0 12 47 -10 75 -34z m-3437
-116 c-13 -14 -28 -12 -28 5 0 5 9 9 20 9 17 0 19 -2 8 -14z m196 -1 c-6 -16
-24 -21 -24 -7 0 11 11 22 21 22 5 0 6 -7 3 -15z m3593 -159 c61 -91 74 -132
74 -236 1 -117 -24 -168 -110 -229 -34 -23 -66 -41 -71 -39 -5 2 6 27 24 55
51 80 70 153 71 264 0 56 -5 102 -11 110 -6 8 -14 28 -18 44 -4 17 -25 58 -47
93 -21 35 -39 68 -39 75 0 20 79 -65 127 -137z m-3347 115 c0 -5 -7 -11 -15
-15 -9 -3 -15 0 -15 9 0 8 7 15 15 15 8 0 15 -4 15 -9z m-60 -46 c0 -2 -9 -9
-20 -15 -24 -13 -50 -2 -29 11 15 9 49 12 49 4z m-75 -44 c-3 -6 -11 -11 -17
-11 -6 0 -6 6 2 15 14 17 26 13 15 -4z m132 -47 c-3 -3 -12 -4 -19 -1 -8 3 -5
6 6 6 11 1 17 -2 13 -5z m-322 -24 c-3 -5 -11 -10 -16 -10 -6 0 -7 5 -4 10 3
6 11 10 16 10 6 0 7 -4 4 -10z m105 1 c0 -5 -10 -11 -22 -14 -22 -6 -22 -6 -4
8 23 17 26 18 26 6z m180 2 c0 -5 -21 -21 -48 -38 -26 -16 -49 -32 -52 -35 -3
-3 -36 -25 -74 -50 -38 -24 -74 -49 -81 -56 -6 -7 -36 -28 -66 -48 -30 -19
-67 -45 -84 -57 -37 -26 30 37 90 86 43 35 142 105 149 105 2 0 37 22 77 50
74 49 89 57 89 43z m-670 -19 c0 -9 -32 -33 -44 -34 -5 0 -1 9 9 20 18 20 35
26 35 14z m310 -39 c-7 -9 -15 -13 -19 -10 -3 3 1 10 9 15 21 14 24 12 10 -5z
m-400 -45 c0 -5 -7 -10 -16 -10 -8 0 -12 5 -9 10 3 6 10 10 16 10 5 0 9 -4 9
-10z m320 -20 c0 -5 -8 -10 -17 -10 -15 0 -16 2 -3 10 19 12 20 12 20 0z
m-370 -4 c0 -2 -7 -7 -16 -10 -8 -3 -12 -2 -9 4 6 10 25 14 25 6z m4330 -150
c-19 -44 -60 -107 -60 -92 0 3 10 23 23 44 24 39 46 103 49 143 1 14 3 9 5
-12 2 -21 -4 -54 -17 -83z m-4410 94 c0 -5 -4 -10 -10 -10 -5 0 -10 5 -10 10
0 6 5 10 10 10 6 0 10 -4 10 -10z m350 -21 c-14 -10 -30 -23 -37 -29 -7 -5
-16 -10 -20 -10 -4 0 10 16 32 34 22 19 42 32 45 29 3 -3 -6 -13 -20 -24z
m100 -109 c0 -5 -5 -10 -11 -10 -5 0 -7 5 -4 10 3 6 8 10 11 10 2 0 4 -4 4
-10z m-492 -260 c-12 -19 -28 -27 -28 -14 0 6 30 33 38 34 1 0 -3 -9 -10 -20z
m-68 -64 c0 -9 -62 -66 -72 -66 -6 0 7 16 28 35 40 35 44 38 44 31z m1540
-191 c0 -14 -13 -39 -30 -57 -24 -27 -29 -29 -30 -15 0 15 48 96 58 97 1 0 2
-11 2 -25z m-21 -227 c1 -57 5 -130 10 -163 10 -71 7 -75 -70 -75 -82 0 -87
10 -48 110 24 63 28 84 19 90 -19 11 -5 51 32 98 50 62 56 56 57 -60z m-502
-21 c24 -13 112 -125 113 -143 0 -7 7 -14 15 -18 8 -3 15 -12 15 -21 0 -8 -7
-15 -15 -15 -21 0 -19 -12 12 -56 38 -57 83 -197 90 -284 6 -69 5 -74 -10 -61
-9 7 -14 18 -10 25 3 6 3 8 -2 4 -12 -12 -36 19 -28 38 5 13 3 16 -9 12 -13
-5 -16 8 -20 88 -3 53 -10 100 -17 107 -6 6 -11 18 -11 26 0 23 -42 79 -68 90
-34 16 -74 13 -98 -7 -29 -24 -75 -100 -65 -106 5 -3 17 7 27 22 29 44 38 49
72 44 l33 -4 -27 -27 c-32 -32 -63 -104 -63 -148 -1 -46 17 -50 24 -6 13 76
47 143 73 143 8 0 23 -7 33 -16 15 -14 16 -18 3 -42 -14 -28 -19 -117 -8 -171
4 -17 22 -48 40 -68 29 -32 42 -53 31 -53 -2 0 -22 9 -45 20 -22 11 -52 20
-65 20 -30 0 -70 31 -108 83 -28 39 -29 39 -29 13 0 -18 18 -46 56 -89 99
-110 159 -160 232 -194 54 -26 59 -32 41 -50 -10 -10 -14 -47 -10 -115 1 -21
6 -28 21 -28 11 0 20 -7 20 -15 0 -14 -3 -14 -25 1 -13 9 -27 24 -30 33 -8 27
-102 116 -198 186 -49 36 -92 65 -97 65 -15 0 -113 115 -128 150 -18 43 -17
86 2 170 42 189 89 300 154 369 42 45 47 46 79 28z m733 -457 c111 -176 151
-303 152 -471 0 -58 -6 -134 -12 -170 -18 -96 -101 -309 -122 -309 -11 0 -10
12 7 83 34 145 38 178 32 274 -6 111 -26 233 -39 233 -4 0 -8 9 -8 19 0 11 -5
23 -12 27 -12 7 -12 7 12 -121 35 -190 2 -487 -57 -509 -12 -5 -13 -9 -3 -21
6 -7 10 -24 8 -35 -3 -20 -5 -20 -27 10 -17 23 -20 35 -12 43 17 17 13 31 -4
17 -18 -15 -20 -9 -30 62 -3 26 -17 63 -30 82 -43 63 -48 76 -35 92 10 11 8
23 -8 56 -11 24 -23 63 -27 88 -4 25 -12 53 -17 63 -7 14 -5 22 8 31 16 12 16
15 -3 42 -36 53 -37 57 -14 49 32 -10 27 30 -15 115 -19 40 -33 74 -31 77 3 2
26 -12 52 -31 66 -51 99 -44 59 12 -8 12 -14 30 -12 40 2 12 -22 45 -61 88
-92 100 -98 110 -77 133 20 22 112 64 128 59 12 -4 13 -8 23 -68 4 -19 11 -39
16 -45 5 -5 9 -18 9 -28 0 -10 6 -31 14 -45 7 -15 24 -48 36 -74 13 -27 27
-48 33 -48 5 0 6 8 2 18 -9 20 -51 221 -60 284 -3 24 -8 66 -11 93 l-5 50 44
-90 c24 -49 68 -128 97 -175z m-200 184 c0 -19 -4 -24 -17 -21 -10 3 -31 8
-48 12 l-30 8 30 13 c47 21 65 18 65 -12z m2442 -55 c15 -8 19 -18 16 -40 -6
-39 11 -32 35 15 24 46 38 31 25 -28 -13 -59 -39 -139 -50 -153 -13 -16 -28
-7 -28 17 0 13 -5 17 -14 14 -8 -3 -43 13 -79 35 -35 23 -76 41 -91 41 -30 0
-32 6 -10 32 16 16 15 18 -5 26 -22 8 -22 8 6 22 15 8 33 20 39 25 14 14 128
9 156 -6z m-4242 -113 c0 -3 -4 -8 -10 -11 -5 -3 -10 -1 -10 4 0 6 5 11 10 11
6 0 10 -2 10 -4z m4088 -68 c18 -18 14 -38 -7 -38 -17 0 -31 18 -31 41 0 13
24 11 38 -3z m-4268 -346 c0 -13 -91 -117 -100 -115 -5 2 -7 -3 -4 -11 3 -7
-9 -25 -25 -39 -17 -14 -31 -29 -31 -33 0 -4 -21 -30 -47 -58 -106 -117 -153
-165 -153 -156 0 5 6 15 13 22 62 66 187 238 187 258 0 6 3 10 8 10 4 0 16 13
27 29 10 16 23 27 27 25 4 -3 8 2 8 10 0 9 6 16 13 16 8 0 24 11 37 25 23 25
40 32 40 17z m1693 -53 c-4 -15 -8 -17 -14 -8 -8 14 -3 29 11 29 4 0 6 -9 3
-21z m-305 -99 c15 -52 20 -62 66 -147 18 -35 31 -65 29 -67 -3 -2 2 -15 10
-28 8 -12 23 -45 33 -73 9 -27 21 -55 25 -60 16 -21 58 -149 52 -158 -3 -6 -1
-7 5 -3 6 3 15 -9 22 -31 19 -58 68 -181 100 -248 15 -33 48 -103 73 -155 102
-214 117 -249 117 -264 0 -9 4 -16 9 -16 5 0 14 -12 20 -27 6 -16 15 -35 20
-43 16 -28 61 -127 61 -135 0 -4 11 -31 24 -59 39 -82 56 -123 56 -138 0 -7 7
-22 15 -32 8 -11 15 -28 15 -37 0 -10 8 -32 17 -51 9 -18 20 -41 25 -51 5 -10
6 -32 3 -48 -5 -23 -3 -30 12 -36 35 -13 44 -43 13 -43 -12 0 -25 10 -30 23
-6 12 -14 29 -19 37 -10 16 -39 79 -81 180 -16 36 -47 108 -70 160 -93 209
-114 260 -156 380 -25 68 -49 129 -54 134 -6 6 -10 16 -10 24 0 17 -38 103
-70 160 -5 9 -52 105 -103 212 -52 107 -147 301 -211 431 -64 130 -116 241
-116 247 0 7 16 11 43 9 40 -3 42 -4 55 -47z m-141 8 c-3 -8 -6 -5 -6 6 -1 11
2 17 5 13 3 -3 4 -12 1 -19z m483 -13 c0 -8 5 -15 12 -15 6 0 9 -2 6 -5 -3 -3
-13 -3 -22 1 -17 7 -22 34 -6 34 6 0 10 -7 10 -15z m-440 -57 c0 -6 -7 -5 -15
2 -8 7 -15 17 -15 22 0 6 7 5 15 -2 8 -7 15 -17 15 -22z m18 -69 c-3 -8 -7 -3
-11 10 -4 17 -3 21 5 13 5 -5 8 -16 6 -23z m137 -257 c15 -29 25 -56 21 -59
-9 -9 -35 28 -36 50 0 9 -11 35 -25 57 -14 22 -25 48 -25 57 1 11 8 5 19 -17
9 -19 30 -59 46 -88z m3393 58 c-4 -52 -18 -52 -18 0 0 22 5 40 10 40 6 0 9
-18 8 -40z m-4625 -75 c-3 -9 -8 -14 -10 -11 -3 3 -2 9 2 15 9 16 15 13 8 -4z
m-38 -35 c-10 -11 -22 -20 -26 -20 -5 0 -1 9 8 20 10 11 22 20 27 20 5 0 1 -9
-9 -20z m-55 -55 c-7 -8 -17 -15 -23 -15 -5 0 -2 9 8 20 21 23 35 19 15 -5z
m1380 -17 c0 -10 4 -18 8 -18 5 0 15 -18 22 -40 7 -22 19 -45 27 -51 7 -6 13
-22 13 -34 0 -13 6 -25 13 -28 6 -2 21 -29 31 -58 11 -30 22 -56 25 -59 4 -3
17 -30 30 -60 13 -30 34 -77 46 -105 12 -27 34 -79 49 -115 15 -36 31 -74 36
-85 4 -11 22 -51 39 -89 17 -37 31 -76 31 -85 0 -25 -48 38 -56 74 -3 16 -10
36 -15 45 -4 8 -10 27 -13 42 -4 15 -13 33 -21 42 -8 8 -15 26 -15 40 0 14 -4
26 -10 26 -5 0 -10 7 -10 15 0 18 -18 51 -42 80 -9 11 -17 29 -16 40 1 11 -21
65 -49 121 -27 55 -53 112 -57 127 -3 15 -11 27 -16 27 -6 0 -10 11 -10 25 0
14 -3 25 -8 25 -10 0 -42 74 -48 114 -4 24 -3 27 5 16 6 -8 11 -23 11 -32z
m-1420 -11 c0 -2 -9 -12 -20 -22 -24 -21 -27 -14 -4 9 15 15 24 20 24 13z
m-83 -83 c-3 -3 -12 -4 -19 -1 -8 3 -5 6 6 6 11 1 17 -2 13 -5z m2356 -360 c3
-3 34 -7 69 -9 86 -5 134 -15 117 -26 -11 -7 -10 -9 3 -9 15 0 71 -28 213
-105 85 -46 98 -52 167 -78 50 -18 69 -22 79 -13 9 8 10 5 6 -13 -7 -29 26
-111 44 -111 7 0 9 -11 5 -32 -5 -31 8 -85 29 -118 5 -8 8 -25 7 -37 -2 -12 2
-40 8 -62 6 -23 8 -47 3 -54 -5 -8 -9 -3 -14 13 l-7 25 -1 -27 c-1 -14 3 -28
9 -30 11 -4 1 -47 -28 -126 -19 -52 -37 -52 -26 0 5 21 4 21 -13 -4 -18 -28
-33 -36 -33 -18 0 6 -6 10 -12 10 -7 0 -52 37 -99 83 -47 45 -108 100 -135
122 -59 48 -244 236 -244 248 0 5 -11 23 -25 39 -14 16 -23 34 -19 39 3 5 1 8
-6 7 -10 -3 -47 58 -68 112 -5 14 -19 46 -31 71 -28 62 -28 132 2 103z m-2230
-109 c-3 -9 -8 -14 -10 -11 -3 3 -2 9 2 15 9 16 15 13 8 -4z m2947 -19 c0 -3
-4 -8 -10 -11 -5 -3 -10 -1 -10 4 0 6 5 11 10 11 6 0 10 -2 10 -4z m60 -36 c0
-11 -7 -20 -15 -20 -13 0 -13 3 -3 20 7 11 14 20 15 20 2 0 3 -9 3 -20z m20
-40 c0 -5 -5 -10 -11 -10 -5 0 -7 5 -4 10 3 6 8 10 11 10 2 0 4 -4 4 -10z m50
-70 c0 -5 -4 -10 -10 -10 -5 0 -10 5 -10 10 0 6 5 10 10 10 6 0 10 -4 10 -10z
m-120 -25 c0 -8 -4 -15 -10 -15 -5 0 -10 7 -10 15 0 8 5 15 10 15 6 0 10 -7
10 -15z m-870 -48 c0 -11 53 -56 66 -57 6 0 18 -31 27 -69 20 -82 21 -94 5
-89 -13 5 -31 33 -73 113 -15 28 -33 57 -41 66 -8 8 -14 20 -14 26 0 6 -7 16
-15 23 -24 20 -6 32 20 13 14 -10 25 -22 25 -26z m1046 6 c-10 -10 -19 5 -10
18 6 11 8 11 12 0 2 -7 1 -15 -2 -18z m-71 -23 c-4 -12 -9 -19 -12 -17 -3 3
-2 15 2 27 4 12 9 19 12 17 3 -3 2 -15 -2 -27z m-1346 -19 c-1 -13 -2 -13 -6
2 -2 9 -9 17 -14 17 -5 0 -9 5 -9 11 0 8 5 8 15 -1 8 -7 14 -20 14 -29z
m-1518 -4 c-10 -9 -11 -8 -5 6 3 10 9 15 12 12 3 -3 0 -11 -7 -18z m2947 -35
c2 -12 8 -22 13 -22 5 0 9 -18 9 -40 0 -22 4 -40 9 -40 14 0 33 -64 25 -86 -5
-16 -4 -17 6 -4 9 12 10 -17 6 -125 -5 -138 -31 -341 -46 -360 -5 -5 -11 -28
-16 -50 -17 -96 -54 -224 -74 -258 -26 -44 -45 -46 -86 -9 -16 15 -47 38 -67
52 -20 14 -37 29 -37 33 0 5 -3 6 -8 3 -12 -7 -78 53 -66 61 27 20 153 364
225 613 16 58 34 114 39 125 8 19 13 39 27 108 7 34 36 33 41 -1z m-178 -12
c0 -5 -4 -10 -10 -10 -5 0 -10 5 -10 10 0 6 5 10 10 10 6 0 10 -4 10 -10z m65
0 c3 -5 -1 -10 -10 -10 -9 0 -13 5 -10 10 3 6 8 10 10 10 2 0 7 -4 10 -10z
m170 0 c3 -5 -1 -10 -9 -10 -9 0 -16 5 -16 10 0 6 4 10 9 10 6 0 13 -4 16 -10z
m-1422 -15 c-3 -9 -8 -14 -10 -11 -3 3 -2 9 2 15 9 16 15 13 8 -4z m1434 -37
c-3 -8 -6 -5 -6 6 -1 11 2 17 5 13 3 -3 4 -12 1 -19z m-227 -2 c0 -8 -4 -18
-10 -21 -5 -3 -10 3 -10 14 0 12 5 21 10 21 6 0 10 -6 10 -14z m-1180 -12 c0
-8 -4 -12 -10 -9 -5 3 -10 10 -10 16 0 5 5 9 10 9 6 0 10 -7 10 -16z m1807
-21 c-3 -10 -5 -4 -5 12 0 17 2 24 5 18 2 -7 2 -21 0 -30z m-1319 -38 l0 -30
-8 30 c-4 17 -8 39 -8 50 l-1 20 9 -20 c5 -11 8 -33 8 -50z m726 30 c-4 -8 -8
-15 -10 -15 -2 0 -4 7 -4 15 0 8 4 15 10 15 5 0 7 -7 4 -15z m593 -57 c-3 -7
-5 -2 -5 12 0 14 2 19 5 13 2 -7 2 -19 0 -25z m-1207 12 c0 -5 5 -10 11 -10
16 0 152 -96 218 -154 99 -88 135 -118 174 -144 34 -23 37 -28 31 -56 -4 -17
-10 -37 -14 -46 -21 -45 -40 -90 -56 -133 -9 -26 -21 -50 -25 -53 -5 -3 -9
-14 -9 -25 0 -22 -3 -23 -31 -6 -52 30 -255 221 -274 257 -7 14 -26 40 -42 57
-55 61 -59 77 -38 138 17 50 21 78 24 158 1 17 7 27 16 27 8 0 15 -4 15 -10z
m-108 -118 c-3 -33 -9 -51 -16 -49 -17 6 -19 44 -5 93 17 56 29 32 21 -44z
m1320 11 c-2 -43 -7 -100 -12 -128 -8 -47 -8 -46 -5 20 2 39 4 96 4 128 1 31
5 57 9 57 4 0 6 -35 4 -77z m-3792 60 c0 -5 -7 -17 -15 -27 -8 -11 -15 -26
-15 -34 0 -8 -7 -28 -15 -45 -8 -18 -27 -66 -44 -107 -42 -109 -76 -173 -146
-280 -34 -52 -65 -103 -68 -113 -11 -29 -26 -10 -17 21 7 27 166 340 257 510
38 71 64 101 63 75z m404 -18 c3 -8 11 -15 18 -15 8 0 21 -8 29 -17 20 -22 49
-46 83 -68 14 -10 26 -24 26 -31 0 -8 7 -17 15 -20 11 -5 12 -11 5 -24 -14
-26 -13 -30 7 -23 11 4 14 3 9 -6 -5 -7 3 -26 18 -46 14 -18 26 -36 26 -39 0
-3 15 -26 33 -52 17 -25 37 -53 42 -63 6 -9 13 -18 16 -21 4 -3 9 -15 13 -27
9 -27 1 -26 -91 18 -62 31 -143 43 -150 23 -2 -6 9 -16 24 -23 55 -25 224
-135 263 -171 22 -20 40 -45 40 -54 0 -9 -4 -14 -10 -11 -5 3 -10 1 -10 -4 0
-6 10 -11 23 -11 24 -1 67 -32 67 -49 0 -16 -8 -14 -37 9 -14 11 -37 20 -51
20 -13 0 -51 13 -83 30 -33 16 -63 29 -67 29 -21 -3 -39 7 -131 76 -88 68
-106 77 -163 86 -34 6 -86 8 -115 5 -53 -6 -156 -30 -172 -40 -11 -7 -2 152 9
173 4 8 32 30 61 50 60 40 92 85 134 184 15 38 33 74 39 80 7 7 15 20 19 30 8
21 53 23 61 2z m4171 5 c3 -5 2 -10 -4 -10 -5 0 -13 5 -16 10 -3 6 -2 10 4 10
5 0 13 -4 16 -10z m4 -94 c1 -15 -3 -13 -21 10 -13 16 -26 31 -30 32 -5 2 -8
8 -8 14 0 18 59 -37 59 -56z m-359 29 c-7 -9 -15 -13 -17 -11 -7 7 7 26 19 26
6 0 6 -6 -2 -15z m-2205 -15 c0 -7 -6 -15 -12 -17 -8 -3 -13 4 -13 17 0 13 5
20 13 18 6 -3 12 -11 12 -18z m2226 -78 c-10 -19 -40 -37 -48 -28 -2 2 8 16
23 30 31 28 41 28 25 -2z m-4632 -9 c-13 -17 -40 -44 -106 -106 -17 -16 -36
-26 -43 -22 -6 4 4 17 27 34 21 16 56 47 78 69 40 41 69 57 44 25z m2461 -23
c0 -11 -7 -20 -15 -20 -8 0 -15 9 -15 20 0 11 7 20 15 20 8 0 15 -9 15 -20z
m-1319 -81 c25 -26 49 -54 52 -64 4 -9 11 -13 17 -10 5 3 10 -1 10 -10 0 -14
-2 -14 -25 1 -14 9 -25 19 -25 23 0 11 -108 121 -119 121 -6 0 -11 8 -11 17 0
19 22 2 101 -78z m1364 -2 c0 -26 -20 -25 -23 2 -3 16 1 22 10 19 7 -3 13 -12
13 -21z m1658 -19 c-4 -7 -10 -35 -14 -63 l-6 -50 -2 57 c-1 51 3 61 27 67 2
1 0 -5 -5 -11z m-4325 -19 c-2 -5 -19 -19 -38 -31 l-35 -21 30 30 c31 32 49
41 43 22z m4648 0 c12 -19 4 -123 -10 -137 -31 -31 -72 79 -47 127 13 23 45
28 57 10z m-79 -71 c-3 -8 -6 -5 -6 6 -1 11 2 17 5 13 3 -3 4 -12 1 -19z
m-4681 -13 c-11 -8 -25 -15 -30 -15 -6 1 0 7 14 15 32 19 40 18 16 0z m1534
-16 c0 -6 -4 -7 -10 -4 -5 3 -10 11 -10 16 0 6 5 7 10 4 6 -3 10 -11 10 -16z
m85 -89 c3 -5 2 -10 -4 -10 -5 0 -13 5 -16 10 -3 6 -2 10 4 10 5 0 13 -4 16
-10z m3040 0 c3 -5 1 -10 -4 -10 -6 0 -11 5 -11 10 0 6 2 10 4 10 3 0 8 -4 11
-10z m546 -43 c-7 -7 -9 -1 -7 19 5 40 8 43 13 15 3 -13 0 -28 -6 -34z m62
-10 c7 -47 0 -87 -14 -87 -5 0 -9 -9 -9 -19 0 -20 -65 -142 -80 -151 -5 -3
-16 -22 -24 -41 -8 -20 -22 -41 -30 -49 -9 -7 -16 -17 -16 -22 0 -5 -9 -21
-20 -35 -30 -38 -25 -24 25 76 25 49 45 93 45 96 0 4 7 23 16 43 8 21 21 51
28 67 22 50 46 129 46 148 0 9 6 17 14 17 8 0 16 -16 19 -43z m-873 1 c0 -19
-2 -20 -10 -8 -13 19 -13 30 0 30 6 0 10 -10 10 -22z m369 -51 c0 -21 -1 -21
-9 -2 -12 28 -12 37 0 30 6 -3 10 -16 9 -28z m-4388 -54 c-8 -15 -10 -15 -11
-2 0 17 10 32 18 25 2 -3 -1 -13 -7 -23z m4928 -105 c3 -87 2 -94 -34 -172
-84 -184 -119 -247 -146 -270 -16 -14 -29 -29 -28 -33 3 -20 -2 -34 -11 -28
-5 3 -7 12 -4 19 3 8 1 16 -4 20 -5 3 12 47 37 99 25 51 54 112 64 136 20 47
49 153 44 158 -2 2 -17 -30 -33 -69 -25 -62 -50 -112 -99 -197 -5 -9 -27 -37
-47 -62 -31 -36 -38 -40 -38 -23 0 38 33 119 69 165 20 26 45 62 56 80 11 19
30 52 44 74 13 22 29 44 37 48 8 4 14 16 14 26 0 9 7 26 15 37 8 10 15 27 15
36 0 9 5 29 12 43 19 43 33 12 37 -87z m-4964 53 c-17 -17 -17 -13 2 37 6 16
6 16 11 -2 2 -10 -4 -26 -13 -35z m3474 -198 c2 -2 -3 -3 -11 -3 -9 0 -19 7
-22 16 -6 15 -4 15 11 3 10 -7 20 -15 22 -16z m76 -53 c3 -5 -1 -10 -9 -10 -9
0 -16 5 -16 10 0 6 4 10 9 10 6 0 13 -4 16 -10z m84 -72 c12 -15 11 -18 -3
-18 -10 0 -16 8 -16 22 0 12 1 19 3 17 1 -2 9 -12 16 -21z m918 -270 c-3 -8
-6 -5 -6 6 -1 11 2 17 5 13 3 -3 4 -12 1 -19z m-437 -23 c0 -5 -5 -3 -10 5 -5
8 -10 20 -10 25 0 6 5 3 10 -5 5 -8 10 -19 10 -25z m17 -42 c-3 -10 -5 -4 -5
12 0 17 2 24 5 18 2 -7 2 -21 0 -30z m-1337 7 c0 -5 -8 -10 -17 -10 -15 0 -16
2 -3 10 19 12 20 12 20 0z m1379 -123 c1 -5 -3 -5 -9 -2 -5 3 -10 16 -9 28 0
21 1 21 9 2 5 -11 9 -24 9 -28z m-256 -44 c-7 -2 -19 -2 -25 0 -7 3 -2 5 12 5
14 0 19 -2 13 -5z m-1353 -99 c0 -8 -4 -12 -10 -9 -5 3 -10 10 -10 16 0 5 5 9
10 9 6 0 10 -7 10 -16z"/>
<path d="M2500 3526 c0 -4 9 -17 20 -29 18 -18 22 -20 30 -7 14 21 12 30 -4
30 -8 0 -21 3 -30 6 -9 3 -16 3 -16 0z"/>
<path d="M2525 3450 c-7 -12 2 -30 16 -30 5 0 9 9 9 20 0 21 -15 27 -25 10z"/>
<path d="M3041 3644 c0 -11 3 -14 6 -6 3 7 2 16 -1 19 -3 4 -6 -2 -5 -13z"/>
<path d="M3060 3603 c0 -13 5 -23 10 -23 13 0 13 11 0 30 -8 12 -10 11 -10 -7z"/>
<path d="M3368 6343 c7 -3 16 -2 19 1 4 3 -2 6 -13 5 -11 0 -14 -3 -6 -6z"/>
<path d="M3718 6323 c7 -3 16 -2 19 1 4 3 -2 6 -13 5 -11 0 -14 -3 -6 -6z"/>
<path d="M4151 6296 c9 -9 89 -33 89 -27 0 9 -51 31 -74 31 -10 0 -17 -2 -15
-4z"/>
<path d="M3258 6281 c-43 -4 -80 -10 -84 -14 -12 -12 97 -6 151 8 56 14 45 15
-67 6z"/>
<path d="M3128 6253 c6 -2 18 -2 25 0 6 3 1 5 -13 5 -14 0 -19 -2 -12 -5z"/>
<path d="M3768 6203 c7 -3 16 -2 19 1 4 3 -2 6 -13 5 -11 0 -14 -3 -6 -6z"/>
<path d="M2858 6193 c7 -3 16 -2 19 1 4 3 -2 6 -13 5 -11 0 -14 -3 -6 -6z"/>
<path d="M2755 6160 c-3 -5 -2 -10 4 -10 5 0 13 5 16 10 3 6 2 10 -4 10 -5 0
-13 -4 -16 -10z"/>
<path d="M2641 6119 c-13 -5 -22 -12 -19 -14 3 -3 20 1 39 9 37 17 19 21 -20
5z"/>
<path d="M4988 6023 c7 -3 16 -2 19 1 4 3 -2 6 -13 5 -11 0 -14 -3 -6 -6z"/>
<path d="M5410 5890 c0 -6 7 -10 15 -10 8 0 15 2 15 4 0 2 -7 6 -15 10 -8 3
-15 1 -15 -4z"/>
<path d="M2328 5883 c7 -3 16 -2 19 1 4 3 -2 6 -13 5 -11 0 -14 -3 -6 -6z"/>
<path d="M3435 4425 c-122 -17 -139 -23 -167 -52 l-23 -26 30 6 c17 3 67 13
113 22 66 13 93 14 133 6 27 -6 98 -11 158 -11 95 0 113 -3 162 -26 30 -15 56
-29 59 -33 3 -4 26 -15 53 -25 26 -10 47 -24 47 -32 0 -8 6 -14 13 -14 6 0 23
-9 36 -19 l25 -19 -85 -6 c-190 -13 -349 -19 -426 -17 -45 2 -88 -1 -95 -6 -7
-4 -33 -12 -57 -18 -59 -13 -61 -28 -6 -44 36 -10 49 -21 67 -54 29 -52 48
-59 48 -18 0 34 1 34 115 32 89 -3 97 -7 135 -73 51 -89 123 -150 206 -176
145 -44 181 -38 204 35 7 21 18 45 25 53 6 8 15 23 18 33 7 18 37 24 37 7 0
-20 21 -10 30 15 8 21 14 24 41 18 31 -6 32 -5 25 23 -4 16 -15 35 -24 42 -14
11 -15 14 -2 22 12 7 12 12 -4 29 -26 29 -12 41 52 42 61 1 183 37 189 56 3 7
-17 14 -54 18 -96 12 -174 32 -360 96 -98 33 -209 66 -248 74 -38 8 -101 21
-140 29 -105 21 -229 26 -330 11z m736 -386 c32 -22 39 -49 12 -49 -20 0 -63
38 -63 57 0 19 17 16 51 -8z"/>
<path d="M3590 3922 c0 -15 54 -60 110 -90 66 -36 155 -58 265 -66 84 -5 64 3
-50 22 -51 9 -238 84 -265 107 -24 20 -60 36 -60 27z"/>
<path d="M937 3737 c-10 -10 -16 -21 -13 -24 7 -7 39 25 34 35 -2 4 -11 -1
-21 -11z"/>
<path d="M4088 3743 c7 -3 16 -2 19 1 4 3 -2 6 -13 5 -11 0 -14 -3 -6 -6z"/>
<path d="M5442 3675 c-17 -37 -14 -45 4 -12 9 16 14 31 11 33 -2 2 -9 -7 -15
-21z"/>
<path d="M4995 3580 c51 -34 118 -52 149 -41 38 15 32 31 -12 31 -21 0 -64 7
-95 15 -75 19 -78 19 -42 -5z"/>
<path d="M628 3046 c-10 -7 -15 -16 -12 -19 4 -3 13 1 21 9 20 19 13 26 -9 10z"/>
<path d="M595 2759 c-22 -10 -33 -18 -25 -18 8 0 33 8 55 18 22 11 33 19 25
19 -8 0 -33 -8 -55 -19z"/>
<path d="M3160 2741 c0 -12 6 -21 15 -21 8 0 15 4 15 9 0 5 -7 14 -15 21 -13
10 -15 9 -15 -9z"/>
<path d="M4428 2703 c12 -2 30 -2 40 0 9 3 -1 5 -23 4 -22 0 -30 -2 -17 -4z"/>
<path d="M3225 2690 c3 -5 8 -10 11 -10 2 0 4 5 4 10 0 6 -5 10 -11 10 -5 0
-7 -4 -4 -10z"/>
<path d="M3275 2640 c3 -5 13 -10 21 -10 8 0 14 -4 14 -10 0 -5 8 -10 18 -10
14 0 12 4 -8 20 -26 21 -56 27 -45 10z"/>
<path d="M395 2292 c-22 -21 -74 -76 -115 -122 -41 -46 -95 -105 -120 -131
-25 -26 -52 -59 -60 -72 -8 -14 -34 -52 -57 -85 -38 -54 -43 -67 -42 -114 l0
-53 35 74 c49 102 198 301 358 476 40 43 54 65 43 65 -2 0 -21 -17 -42 -38z"/>
<path d="M4860 1906 c0 -10 6 -13 16 -9 8 3 26 0 40 -7 13 -8 27 -11 30 -7 7
7 -21 22 -58 31 -21 5 -28 3 -28 -8z"/>
<path d="M5235 1660 c-7 -11 170 -189 188 -190 4 0 7 11 7 25 0 17 -12 32 -42
53 -24 16 -54 40 -68 53 -65 61 -78 70 -85 59z"/>
<path d="M5245 1540 c-10 -15 9 -41 84 -113 72 -69 98 -80 93 -36 -2 22 -72
99 -90 99 -4 0 -22 14 -41 30 -38 34 -38 34 -46 20z"/>
<path d="M280 837 c-30 -29 -75 -68 -100 -87 -25 -19 -50 -42 -57 -51 -7 -9
-37 -33 -67 -54 -46 -31 -56 -44 -56 -67 0 -15 2 -28 5 -28 17 0 236 153 290
202 17 15 33 28 38 28 4 0 7 7 7 15 0 8 -2 15 -5 15 -11 0 -50 -26 -58 -37 -4
-7 -15 -13 -23 -13 -9 0 9 24 40 54 51 49 68 76 49 76 -5 0 -33 -24 -63 -53z
m-40 -91 c0 -3 -15 -15 -32 -27 l-33 -23 24 27 c22 24 41 35 41 23z"/>
<path d="M3040 170 c0 -5 5 -10 11 -10 5 0 7 5 4 10 -3 6 -8 10 -11 10 -2 0
-4 -4 -4 -10z"/>
<path d="M3041 134 c0 -11 3 -14 6 -6 3 7 2 16 -1 19 -3 4 -6 -2 -5 -13z"/>
<path d="M0 44 c0 -8 5 -12 10 -9 6 4 8 11 5 16 -9 14 -15 11 -15 -7z"/>
</g>
</svg>
